<svg width="400" height="400" viewBox="0 0 400 400" xmlns="http://www.w3.org/2000/svg">
  <!-- Fondo con esquinas redondeadas -->
  <rect x="50" y="50" width="300" height="300" rx="60" ry="60" fill="#FF5722" stroke="none"/>
  
  <!-- Sombra sutil -->
  <rect x="52" y="52" width="300" height="300" rx="60" ry="60" fill="#E64A19" opacity="0.3" stroke="none"/>
  
  <!-- Ícono de auriculares/headset -->
  <g transform="translate(200, 200)">
    <!-- Diadema principal -->
    <path d="M -60 -20 A 60 60 0 0 1 60 -20" stroke="white" stroke-width="12" fill="none" stroke-linecap="round"/>
    
    <!-- Auricular izquierdo -->
    <rect x="-70" y="-25" width="20" height="35" rx="10" ry="10" fill="white"/>
    <rect x="-68" y="-20" width="16" height="25" rx="8" ry="8" fill="#FF5722"/>
    
    <!-- Auricular derecho -->
    <rect x="50" y="-25" width="20" height="35" rx="10" ry="10" fill="white"/>
    <rect x="52" y="-20" width="16" height="25" rx="8" ry="8" fill="#FF5722"/>
    
    <!-- Micrófono -->
    <path d="M -60 0 Q -80 10 -85 25" stroke="white" stroke-width="8" fill="none" stroke-linecap="round"/>
    <circle cx="-85" cy="25" r="6" fill="white"/>
    
    <!-- Símbolo de ondas de sonido -->
    <g transform="translate(0, 30)">
      <path d="M -15 -10 Q 0 -5 15 -10" stroke="white" stroke-width="4" fill="none" stroke-linecap="round" opacity="0.8"/>
      <path d="M -20 0 Q 0 5 20 0" stroke="white" stroke-width="4" fill="none" stroke-linecap="round" opacity="0.6"/>
      <path d="M -25 10 Q 0 15 25 10" stroke="white" stroke-width="4" fill="none" stroke-linecap="round" opacity="0.4"/>
    </g>
  </g>
  
  <!-- Texto "Eventualy" en la parte inferior (opcional, puedes quitarlo si prefieres solo el ícono) -->
  <text x="200" y="380" text-anchor="middle" font-family="Arial, sans-serif" font-size="24" font-weight="bold" fill="#FF5722">Soporte</text>
</svg>